<?xml version="1.0" standalone="no"?>
<!DOCTYPE svg PUBLIC "-//W3C//DTD SVG 20010904//EN"
 "http://www.w3.org/TR/2001/REC-SVG-20010904/DTD/svg10.dtd">
<svg version="1.0" xmlns="http://www.w3.org/2000/svg"
 width="300.000000pt" height="168.000000pt" viewBox="0 0 300.000000 168.000000"
 preserveAspectRatio="xMidYMid meet">

<g transform="translate(0.000000,168.000000) scale(0.100000,-0.100000)"
fill="#000000" stroke="none">
<path d="M630 965 l0 -475 340 0 340 0 0 345 0 345 -75 0 c-75 0 -75 0 -76
-27 -1 -16 -2 -136 -3 -268 l-2 -240 -52 -3 -52 -3 0 270 0 271 -80 0 -80 0 0
-270 0 -270 -50 0 -50 0 0 325 0 325 788 0 787 0 -3 75 -4 75 -864 0 -864 0 0
-475z"/>
<path d="M1410 830 l0 -340 220 0 220 0 0 75 0 75 -140 0 -140 0 0 55 0 55
145 0 145 0 0 210 0 210 -225 0 -225 0 0 -340z m288 128 l-3 -63 -62 -3 -63
-3 0 66 0 65 65 0 66 0 -3 -62z"/>
<path d="M1950 830 l0 -340 130 0 130 0 0 -55 0 -55 -790 0 -790 0 0 -70 0
-70 865 0 865 0 2 465 3 465 -207 0 -208 0 0 -340z m260 -5 l0 -185 -55 0 -55
0 0 185 0 185 55 0 55 0 0 -185z"/>
</g>
</svg>
